<?xml version="1.0" encoding="UTF-8" standalone="no"?>
<svg
   width="72.150002"
   height="48.415329"
   version="1.1"
   id="svg2"
   xmlns="http://www.w3.org/2000/svg"
   xmlns:svg="http://www.w3.org/2000/svg">
  <defs
     id="defs2" />
  <path
     d="m 53.375,7.2763281 a 0.74,0.74 0 0 0 -0.974,-0.426 0.72,0.72 0 0 0 -0.446,0.67 c 0,0.08 0.02,0.183 0.04,0.264 a 16.98,16.98 0 0 1 1.076,5.9869999 c 0,8.625 -6.433,15.75 -14.754,16.845 v -7.935 a 12.21,12.21 0 0 0 1.482,-0.386 v 6.657 c 6.84,-1.664 11.913,-7.834 11.913,-15.18 0,-5.8859999 -3.267,-11.0199999 -8.077,-13.67999986 a 0.73,0.73 0 0 0 -1.015,0.325 c -0.06,0.1 -0.08,0.223 -0.08,0.325 a 0.75,0.75 0 0 0 0.386,0.64899996 c 4.363,2.415 7.306,7.063 7.306,12.3799999 0,5.987 -3.714,11.1 -8.97,13.17 v -5.906 c 0.913,-0.284 1.603,-1.137 1.603,-2.15 0,-0.832 -0.426,-1.563 -1.116,-1.948 0.528,-5.094 2.862,-3.755 2.862,-5.378 v -0.956 c 0,-2.4349999 -5.642,-10.36999986 -8.28,-10.55299986 h -0.487 c -2.638,0.183 -8.28,8.11799996 -8.28,10.55299986 v 0.954 c 0,1.624 2.334,0.284 2.862,5.378 -0.7,0.386 -1.116,1.116 -1.116,1.948 0,1.015 0.7,1.867 1.603,2.15 v 5.906 c -5.256,-2.07 -8.97,-7.184 -8.97,-13.17 0,-5.3379999 2.943,-9.9649999 7.306,-12.3799999 0.345,-0.183 0.467,-0.59999996 0.304,-0.97399996 -0.122,-0.264 -0.386,-0.406 -0.67,-0.406 -0.122,0 -0.244,0.02 -0.345,0.1 -4.83,2.65999996 -8.077,7.77299996 -8.077,13.67999986 0,7.347 5.074,13.516 11.913,15.18 v -6.666 c 0.487,0.162 0.974,0.304 1.482,0.386 v 7.935 c -8.34,-1.096 -14.754,-8.22 -14.754,-16.845 a 17.21,17.21 0 0 1 1.076,-5.9869999 c 0.142,-0.365 -0.04,-0.792 -0.406,-0.934 a 0.72,0.72 0 0 0 -0.284,-0.06 0.74,0.74 0 0 0 -0.7,0.487 c -0.75,2.03 -1.177,4.2199999 -1.177,6.4939999 0,9.945 7.854,18.062 17.717,18.448 v -9.344 c 0.264,0.02 0.75,0.02 0.75,0.02 0,0 0.487,0 0.75,-0.02 v 9.356 c 9.863,-0.386 17.717,-8.504 17.717,-18.448 A 19.21,19.21 0 0 0 53.368,7.2763281 Z m -13.9,10.5329999 c 0.284,-0.284 0.65,-0.446 1.076,-0.446 0.426,0 0.792,0.162 1.076,0.446 0.284,0.284 0.446,0.65 0.446,1.076 0,0.426 -0.162,0.792 -0.446,1.076 -0.284,0.284 -0.65,0.446 -1.076,0.446 -0.426,0 -0.792,-0.162 -1.076,-0.446 -0.284,-0.284 -0.446,-0.65 -0.446,-1.076 a 1.72,1.72 0 0 1 0.446,-1.076 z m -6.8,2.15 c -0.284,0.284 -0.65,0.446 -1.076,0.446 -0.426,0 -0.792,-0.162 -1.076,-0.446 -0.284,-0.284 -0.446,-0.65 -0.446,-1.076 0,-0.426 0.162,-0.792 0.446,-1.076 0.284,-0.284 0.65,-0.446 1.076,-0.446 0.426,0 0.792,0.162 1.076,0.446 0.284,0.284 0.446,0.65 0.446,1.076 a 1.54,1.54 0 0 1 -0.446,1.076 z"
     fill="#149287"
     id="path1" />
</svg>
